<?xml version="1.0" encoding="iso-8859-1"?>
<!-- Generator: Adobe Illustrator 19.0.0, SVG Export Plug-In . SVG Version: 6.00 Build 0)  -->
<svg version="1.1" id="Capa_1" xmlns="http://www.w3.org/2000/svg" xmlns:xlink="http://www.w3.org/1999/xlink" x="0px" y="0px"
	 viewBox="0 0 512.001 512.001" style="enable-background:new 0 0 512.001 512.001;" xml:space="preserve">
<path style="fill:#1E87DC;" d="M286.049,243.025c-4.019-3.749-4.237-10.046-0.489-14.065l58.897-63.133
	c3.75-4.018,10.046-4.237,14.065-0.488s4.237,10.046,0.489,14.064l-58.897,63.133C296.37,246.549,290.074,246.78,286.049,243.025z"
	/>
<polygon style="fill:#A0EBFF;" points="281.284,248.137 231.535,166.002 67.289,166.002 49.346,248.137 "/>
<polygon style="fill:#6EE1FF;" points="237.19,176.217 229.314,163.214 68.09,163.214 65.249,176.217 "/>
<g>
	<polygon style="opacity:0.5;fill:#FFFFFF;enable-background:new    ;" points="80.569,248.137 122.203,166.002 100.747,166.002 
		59.113,248.137 	"/>
	<polygon style="opacity:0.5;fill:#FFFFFF;enable-background:new    ;" points="162.636,248.137 204.27,166.002 182.814,166.002 
		141.319,247.861 141.863,248.137 	"/>
	<polygon style="opacity:0.61;fill:#FFFFFF;enable-background:new    ;" points="180.302,248.137 221.937,166.002 211.209,166.002 
		169.574,248.137 	"/>
</g>
<path style="fill:#50555A;" d="M51.474,362.34H2.927C1.31,362.34,0,361.029,0,359.413v-14.834c0-1.617,1.311-2.927,2.927-2.927
	h48.546L51.474,362.34L51.474,362.34z"/>
<path style="fill:#2896FF;" d="M390.404,273.437c0-23.42-18.984-42.411-42.404-42.411h-63.501l-41.536-74.61
	c-3.819-6.82-11.047-11.056-18.864-11.056H69.885c-10.07,0-18.951,7.138-21.116,16.975L26.201,262.366v99.351
	c20.681,1.354,138.23,0.294,349.589,0.676c0,0,14.246-1.474,14.614-1.578C390.404,353.812,390.404,302.699,390.404,273.437z
	 M263.038,241.565h-11.925v0.146H144.335v-72.263h78.318L263.038,241.565z M71.868,169.448h48.379v72.263H55.969L71.868,169.448z"/>
<path style="fill:#1E87DC;" d="M407.075,337.386c0,13.811-11.196,25.007-25.007,25.007H25.08c-5.639,0-10.211-4.571-10.211-10.211
	v-29.593c0-5.639,4.571-10.211,10.211-10.211h356.988C395.879,312.379,407.075,323.575,407.075,337.386z"/>
<path style="fill:#1E73BE;" d="M186.386,273.894h-25.812c-4.852,0-8.784-3.933-8.784-8.784s3.932-8.784,8.784-8.784h25.812
	c4.852,0,8.784,3.933,8.784,8.784S191.238,273.894,186.386,273.894z"/>
<path style="fill:#1E87DC;" d="M372.272,275.764c-8.937,0-16.181,7.244-16.181,16.181s7.245,16.181,16.181,16.181h18.132
	c0-6.319,0-25.453,0-32.363h-18.132V275.764z"/>
<path style="fill:#FAC855;" d="M390.224,269.616h-17.952c-8.937,0-16.181,7.244-16.181,16.181s7.245,16.181,16.181,16.181h18.132
	C390.404,270.673,390.464,272.307,390.224,269.616z"/>
<path style="fill:#FF640A;" d="M44.497,307.655c0,2.609-2.115,4.724-4.724,4.724H26.201v-38.486h13.572
	c2.609,0,4.724,2.115,4.724,4.724C44.497,278.617,44.497,307.655,44.497,307.655z"/>
<path style="fill:#1E73BE;" d="M361.535,362.393L361.535,362.393c0-29.601-23.996-53.596-53.597-53.596
	c-29.583,0-53.566,23.968-53.595,53.543C258.643,362.442,247.61,362.372,361.535,362.393z"/>
<circle style="fill:#373C41;" cx="307.94" cy="362.388" r="41.41"/>
<circle style="fill:#696E73;" cx="307.94" cy="362.388" r="16.774"/>
<path style="fill:#82878C;" d="M307.938,345.619v33.548c9.264,0,16.774-7.51,16.774-16.774
	C324.712,353.129,317.202,345.619,307.938,345.619z"/>
<g>
	<rect x="120.25" y="169.448" style="fill:#1E87DC;" width="24.09" height="6.522"/>
	<rect x="55.969" y="241.708" style="fill:#1E87DC;" width="203.32" height="7.087"/>
</g>
<path style="fill:#1E73BE;" d="M277.079,231.014c0,9.822-7.962,17.784-17.784,17.784h-17.784V213.23h17.784
	C269.117,213.23,277.079,221.192,277.079,231.014L277.079,231.014z"/>
<g>
	<path style="fill:#1E87DC;" d="M284.498,231.014c7.092,11.586,19.7,18.65,33.284,18.65h65.345
		c-7.625-11.253-20.512-18.65-35.127-18.65"/>
	<rect x="128.22" y="245.258" style="fill:#1E87DC;" width="6.911" height="72.76"/>
</g>
<path style="fill:#1E73BE;" d="M158.665,362.393L158.665,362.393c0-29.601-23.996-53.596-53.597-53.596
	c-29.583,0-53.566,23.968-53.595,53.543C55.774,362.442,44.741,362.372,158.665,362.393z"/>
<circle style="fill:#373C41;" cx="105.07" cy="362.388" r="41.41"/>
<circle style="fill:#696E73;" cx="105.07" cy="362.388" r="16.774"/>
<path style="fill:#82878C;" d="M105.069,345.619v33.548c9.264,0,16.774-7.51,16.774-16.774
	C121.843,353.129,114.333,345.619,105.069,345.619z"/>
<path style="fill:#696E73;" d="M221.217,129.945c0,2.587-2.097,4.684-4.684,4.684H76.017c-2.587,0-4.684-2.097-4.684-4.684l0,0
	c0-2.587,2.097-4.684,4.684-4.684h140.515C219.12,125.262,221.217,127.359,221.217,129.945L221.217,129.945z"/>
<g>
	<path style="fill:#82878C;" d="M97.87,145.36H87.618v-22.876c0-2.831,2.295-5.126,5.126-5.126s5.126,2.295,5.126,5.126
		C97.87,122.484,97.87,145.36,97.87,145.36z"/>
	<path style="fill:#82878C;" d="M204.932,145.36H194.68v-22.876c0-2.831,2.295-5.126,5.126-5.126c2.831,0,5.126,2.295,5.126,5.126
		V145.36z"/>
</g>
<path style="fill:#414B82;" d="M419.642,389.262l-5.925-87.14c-0.374-5.494,2.25-10.762,6.861-13.774l60.124-39.276
	c7.036-4.596,16.468-2.619,21.065,4.418c4.597,7.037,2.619,16.468-4.418,21.065l-52.658,34.399l5.319,78.242
	c0.57,8.386-5.766,15.647-14.151,16.217C427.432,403.981,420.21,397.616,419.642,389.262z"/>
<path style="fill:#53618C;" d="M483.62,396.23l-33.878-58.292c-2.312-3.978-2.7-8.788-1.056-13.085l25.661-67.074
	c3.004-7.851,13.772-11.946,21.624-8.945c7.85,3.004,10.097,12.667,6.806,19.821l-23.061,60.279l30.222,52.001
	c4.223,7.267,1.757,16.582-5.511,20.806C497.172,405.957,487.852,403.511,483.62,396.23z"/>
<path style="fill:#64AFFF;" d="M438.977,276.329l64.298-19.878l-32.095-85.263c-3.455-9.178-13.696-13.818-22.874-10.363
	l-29.635,11.155c-9.178,3.455-13.818,13.696-10.363,22.874L438.977,276.329z"/>
<g>
	<circle style="fill:#FFB69E;" cx="421.33" cy="134.488" r="26.29"/>
	<path style="fill:#FFB69E;" d="M352.824,219.618l49.163,12.271c4.121,1.029,8.482-0.074,11.62-2.937l45.626-41.634
		c5.174-4.721,5.541-12.743,0.819-17.918c-4.718-5.177-12.743-5.541-17.918-0.82l-40.603,37.05l-42.565-10.624
		c-6.796-1.696-13.68,2.438-15.377,9.234C341.896,211.029,346.022,217.921,352.824,219.618z"/>
</g>
<path style="fill:#78BEFF;" d="M460.053,169.402c-4.718-5.177-12.744-5.541-17.918-0.82l-27.267,24.881l16.567,19.222l27.798-25.365
	C464.408,182.598,464.774,174.576,460.053,169.402z"/>
<g>
</g>
<g>
</g>
<g>
</g>
<g>
</g>
<g>
</g>
<g>
</g>
<g>
</g>
<g>
</g>
<g>
</g>
<g>
</g>
<g>
</g>
<g>
</g>
<g>
</g>
<g>
</g>
<g>
</g>
</svg>
